<svg xmlns="http://www.w3.org/2000/svg" width="1125.63" height="730.742" viewBox="0 0 1125.63 730.742">
  <g id="_1_gradient_1_gradient" data-name="1_gradient_1 gradient" transform="translate(-378.77 -177.498)">

    <g id="Group_32946_00000102504799935092629000000005361942243658982307_" transform="translate(1023.768 833.353)">
      <g id="Path_49350_00000129892462998802894480000011210124977463507880_">
        <path id="Path_77526" data-name="Path 77526" d="M199.71-15.62l-72.65.28a26.493,26.493,0,0,1-7.31-4.33,40.182,40.182,0,0,1-9.92-14.11c21.73-2.41,44.63-5.6,66.08-9.58,14.2-2.64,28.4-5.87,42.58-8.53a57.535,57.535,0,0,1-6.18,24.84,54.416,54.416,0,0,1-4.8,7.58,9.776,9.776,0,0,1-7.8,3.84"/>
      </g>
      <g id="Group_25963_00000093870381962371274920000014348398423100990624_">
        <g id="Group_75325" data-name="Group 75325">
          <g id="Group_25962_00000072999471978900949220000011715141925978867090_">
            <g id="Path_49208_00000070087359267150688080000015720170130457773711_">
              <path  id="Path_77527" data-name="Path 77527" d="M-181.51-15.23c12.8,1.44,51.53-.56,51.53-.56a13.018,13.018,0,0,0,7.6-2.52,74.309,74.309,0,0,0,16.62-16.96A72.012,72.012,0,0,0-94.71-58.82s-16.45-21.38-20.25-29.47c-3.64-7.75-6.73-24.82-9.34-32.99a302.271,302.271,0,0,0-17.5-41.8c-3.97-7.09-11.91-21.81-18.23-26.92-5.68-4.59-19.49-11.63-26.79-11.69-5.66-.04-17.21,3.26-21.55,6.88-5.09,4.25-12.48,15.8-14.75,22.02a201.505,201.505,0,0,0-7.97,38.73,200.97,200.97,0,0,0-.6,25.62,286.107,286.107,0,0,0,7.06,42.13c2.23,7.69,7.4,23.04,11.62,29.84,2.64,4.27,8.85,12.55,13.1,15.23a57.979,57.979,0,0,0,18.4,6.01"/>
            </g>
            <g id="Path_49209_00000140010663597785600390000015585349408840662717_">
              <path  id="Path_77528" data-name="Path 77528" d="M-484.11-195.22l-2.51,16.08c-.66,4.4-10.39-1.86-8.3-11,2.09-9.1,12.9-9.06,10.8-5.09" fill="#ff0000"/>
            </g>
            <g id="Path_49210_00000152258539625699882300000002336484469099836580_">
              <path  id="Path_77529" data-name="Path 77529" d="M-457.89-76.69c12.48,2.97,39.48,5.43,51.29,1.32,3.96-1.38,9.97-8.09,11.83-11.83,1.32-2.63,5.26-14.47,5.26-14.47l-19.37-20.03s-10.61-40.85-14.82-54.27a169.1,169.1,0,0,0-14.47-32.12c-2.78-4.21-8.84-12.64-13.07-15.4-1.98-1.28-6.61-3.34-8.95-3.02a28.741,28.741,0,0,0-13.37,7.63,73.868,73.868,0,0,0-9.97,20.56,174.685,174.685,0,0,0-3.04,17.44c-.66,4.8-2.23,14.36-2.59,19.18-.31,4.02-.44,12.1-.28,16.13.14,3.37.64,10.11,1.07,13.45.54,4.14,1.81,12.4,2.75,16.46.7,3.04,2.33,9.08,3.41,12a88.615,88.615,0,0,0,5.22,11.85,46.71,46.71,0,0,0,8.14,10.41,39.94,39.94,0,0,0,10.97,4.71"/>
            </g>
            <g id="Path_49211_00000163065083311984150280000009502189465563563649_">
              <path  id="Path_77530" data-name="Path 77530" d="M-424.97-68.78a166.6,166.6,0,0,1-33.95-3.59l-.1-.03a44.2,44.2,0,0,1-12.17-5.22l-.73-.57a51.076,51.076,0,0,1-8.92-11.4,93.414,93.414,0,0,1-5.55-12.57c-1.14-3.08-2.8-9.25-3.55-12.49-.99-4.27-2.27-12.61-2.83-16.89-.44-3.44-.96-10.26-1.1-13.84-.17-4.25-.02-12.49.29-16.65.28-3.65,1.19-9.74,1.92-14.63.27-1.84.52-3.51.71-4.83a176.714,176.714,0,0,1,3.11-17.82l.08-.31a78.171,78.171,0,0,1,10.57-21.8l.5-.6a33.3,33.3,0,0,1,15.43-8.8l.48-.1c4.24-.56,10.21,2.55,11.97,3.69,5.45,3.56,12.37,13.66,14.35,16.67l.13.21a174.591,174.591,0,0,1,14.85,32.96c3.87,12.33,12.84,46.61,14.61,53.41l20.43,21.12-.85,2.55c-.68,2.03-4.12,12.28-5.5,15.05-2.22,4.46-8.91,12.14-14.34,14.04C-410.14-69.45-417.31-68.78-424.97-68.78Zm-31.85-12.2c12.55,2.97,38.35,5.05,48.76,1.43,2.36-.82,7.67-6.31,9.33-9.63.71-1.42,2.67-6.96,4.17-11.35l-18.3-18.93-.29-1.13c-.11-.41-10.63-40.9-14.76-54.06a165.361,165.361,0,0,0-14-31.11c-3.59-5.43-8.77-12.1-11.72-14.03a17.626,17.626,0,0,0-5.85-2.33,24.462,24.462,0,0,0-10.65,6.08,69.2,69.2,0,0,0-9.09,18.84,168.371,168.371,0,0,0-2.92,16.84c-.19,1.41-.45,3.12-.73,5-.71,4.75-1.59,10.66-1.84,13.99-.29,3.83-.43,11.71-.27,15.62.14,3.32.63,9.89,1.04,13.06.54,4.16,1.8,12.27,2.67,16.03.7,3,2.27,8.82,3.25,11.47a85.253,85.253,0,0,0,4.98,11.31,41.612,41.612,0,0,0,6.96,8.96A34.194,34.194,0,0,0-456.82-80.98Z"/>
            </g>
            <g id="Path_49212_00000121259807468359308840000014191483857082426293_">
              <path  id="Path_77531" data-name="Path 77531" d="M-167.03-13.6c-5.88,0-11.15-.14-14.61-.53l-.04-.01a59.16,59.16,0,0,1-18.75-6.12c-4.78-3.01-11.17-11.83-13.52-15.63-4.13-6.66-9.29-21.66-11.75-30.12a287.209,287.209,0,0,1-7.1-42.34,201.893,201.893,0,0,1,.6-25.81,203.589,203.589,0,0,1,8.02-38.96c2.37-6.47,9.79-18.11,15.1-22.54,4.44-3.71,16.18-7.14,22.16-7.14h.11c7.71.06,21.65,7.22,27.48,11.93,6.03,4.87,13.26,17.83,17.57,25.58l.92,1.65a301.667,301.667,0,0,1,17.58,41.99c.99,3.1,2.04,7.44,3.16,12.03,1.83,7.54,3.9,16.09,6.13,20.84,3.71,7.89,19.97,29.06,20.13,29.27l.33.43-.14.53a72.84,72.84,0,0,1-11.22,23.92,75.486,75.486,0,0,1-16.87,17.21,14.061,14.061,0,0,1-8.24,2.73C-131.09-14.63-151.25-13.6-167.03-13.6Zm-14.34-2.73c12.59,1.41,50.95-.55,51.33-.57a11.947,11.947,0,0,0,7-2.3,73.087,73.087,0,0,0,16.37-16.7A70.649,70.649,0,0,0-95.93-58.57c-2.42-3.16-16.49-21.68-20.05-29.24-2.33-4.96-4.43-13.62-6.28-21.26-1.1-4.55-2.15-8.85-3.11-11.86a301.563,301.563,0,0,0-17.43-41.63l-.91-1.62c-3.96-7.11-11.34-20.34-17.03-24.94-5.66-4.57-19.11-11.39-26.1-11.44-5.47-.08-16.77,3.23-20.83,6.63-4.98,4.15-12.21,15.51-14.42,21.55A201.05,201.05,0,0,0-230-133.91a198.268,198.268,0,0,0-.59,25.45,285.569,285.569,0,0,0,7.03,41.91c2.41,8.3,7.48,23.06,11.49,29.52,2.81,4.53,8.8,12.39,12.75,14.88A57.626,57.626,0,0,0-181.37-16.33Z"/>
            </g>
            <g id="Path_49213_00000062170340002270107300000003981351111785761181_">
              <path  id="Path_77532" data-name="Path 77532" d="M-464.89-239.65a59.649,59.649,0,0,1,27.62-13.15c14.84-24.08,41.17-67.3,92.06-94.68,64.66-34.81,220.92-35.51,293.27-17.1,32.89,8.37,97.31,94.68,97.31,94.68a937.483,937.483,0,0,1,169.64,34.19,136.3,136.3,0,0,0,17.89,3.63,19.623,19.623,0,0,1,3.21-1.43c11.52-3.89,24.78,3.56,32.28,17.09,15.08,21.77,5.22,53.93,8.42,80.65A1766.05,1766.05,0,0,1,83.5-117.36a1765.41,1765.41,0,0,1-207.78-3.94c-14.4-34.55-29.68-88.38-71.77-79.42-48.15,10.26-37.11,132.99-26.87,135.97l-165.37-39.38a1.436,1.436,0,0,1-.55-.28l-16.27-13.94a6.511,6.511,0,0,1-2.21-3.91c-2.92-17.8-26.14-113.16-54.93-104.24-7.51,2.33-14.35,10.37-19.73,27.62a118.682,118.682,0,0,1,0-16.44c.95-5.25,6.54-15.34,17.1-24.33" fill="#ff0000"/>
            </g>
            <g id="Path_49214_00000016762325431969646840000005339849917246966963_">
              <path  id="Path_77533" data-name="Path 77533" d="M222.98-191.99c6.16,18.24,22.13,29.33,35.66,24.76s19.52-23.06,13.36-41.31-22.13-29.33-35.66-24.76-19.52,23.07-13.36,41.31" fill="#fff"/>
            </g>
            <g id="Path_49215_00000168077791924322435750000015284674670374408611_">
              <path  id="Path_77534" data-name="Path 77534" d="M252.43-161.79c-13.75,0-27.81-11.49-33.65-28.79h0c-3.28-9.72-3.54-19.86-.72-28.56,2.97-9.17,8.96-15.69,16.86-18.36,15.83-5.35,34.34,7.01,41.28,27.54,3.28,9.72,3.54,19.86.72,28.56-2.97,9.17-8.96,15.69-16.86,18.36A23.6,23.6,0,0,1,252.43-161.79Zm-9.71-68.12a15.3,15.3,0,0,0-4.96.81c-5.18,1.75-9.19,6.26-11.27,12.69-2.23,6.9-1.99,15.07.69,23h0c5.37,15.9,18.86,25.75,30.05,21.98,5.18-1.75,9.19-6.26,11.27-12.69,2.23-6.9,1.99-15.07-.69-23C263.21-220.73,252.68-229.91,242.72-229.91Z" fill="#ff0000"/>
            </g>
            <g id="Path_49216_00000123426479920401051280000000595834787647927988_">
              <path  id="Path_77535" data-name="Path 77535" d="M-13.35-202.34c11.67,20.22,9.42,43.37-5.03,51.71s-35.62-1.28-47.3-21.5-9.42-43.37,5.03-51.71,35.62,1.28,47.3,21.5" fill="#fff"/>
            </g>
            <g id="Path_49217_00000083780308739781367420000004214315974016025239_">
              <path  id="Path_77536" data-name="Path 77536" d="M-29.95-146.51a32.858,32.858,0,0,1-13.58-3.16c-9.14-4.16-17.35-11.94-23.11-21.92s-8.4-20.98-7.43-30.97c.99-10.13,5.55-18.04,12.86-22.25s16.44-4.22,25.7-.01c9.14,4.16,17.35,11.94,23.11,21.92h0c5.76,9.98,8.4,20.98,7.43,30.97-.99,10.13-5.55,18.04-12.86,22.25A23.869,23.869,0,0,1-29.95-146.51Zm-19.13-79.24a21.823,21.823,0,0,0-11.02,2.86c-6.67,3.85-10.85,11.15-11.76,20.55-.93,9.54,1.61,20.07,7.14,29.65s13.38,17.04,22.11,21.01c8.6,3.91,17.01,3.94,23.68.09s10.85-11.15,11.76-20.55c.93-9.54-1.61-20.07-7.14-29.65h0c-5.53-9.58-13.38-17.04-22.11-21.01A30.7,30.7,0,0,0-49.08-225.75Z" fill="#ff0000"/>
            </g>
            <g id="Path_49218_00000146458240582617368570000009329252104846601639_">
              <path  id="Path_77537" data-name="Path 77537" d="M-13.53-201.06c9.75,16.89,8.21,36.04-3.45,42.76S-46-159.81-55.74-176.7s-8.21-36.04,3.45-42.76,29.01,1.51,38.76,18.4" fill="#fff"/>
            </g>
            <g id="Path_49219_00000121959994762176757280000017528790103940308357_">
              <path  id="Path_77538" data-name="Path 77538" d="M277.05-134.06a13.437,13.437,0,0,1,7.64,6.2,13.8,13.8,0,0,1-1.32,14.47L242.61-76.57l-1.99,12.9a6.56,6.56,0,0,1-4.73,5.33A733.121,733.121,0,0,1,103.2-34.49,734.06,734.06,0,0,1-72.33-40.55,26.272,26.272,0,0,1-89.9-51.54q-11.43-16.47-22.88-32.94a26.426,26.426,0,0,1-3.77-8.13l-7.75-28.67a2050.844,2050.844,0,0,0,223.56,2.63c63.6-2.74,123.03-8.26,177.79-15.41" fill="#ff0000"/>
            </g>
            <g id="Path_49220_00000075842117876879126420000004159084002617656723_">
              <path  id="Path_77539" data-name="Path 77539" d="M42.22-27.39A730.017,730.017,0,0,1-70.71-36.17,30.624,30.624,0,0,1-91.13-49.03l-22.72-32.93a30.923,30.923,0,0,1-4.4-9.5l-9.32-34.66,6.18.42a2023.378,2023.378,0,0,0,221.65,2.63c58.72-2.55,118.02-7.72,176.26-15.38l.99-.13.95.3a17.774,17.774,0,0,1,10.1,8.25,18.279,18.279,0,0,1-1.62,19.28l-.57.63L247.03-74.35,245.29-63a10.949,10.949,0,0,1-7.87,8.92,730.546,730.546,0,0,1-132.65,24Q73.57-27.4,42.22-27.39Zm-158.01-89.07,6.1,22.7a21.852,21.852,0,0,0,3.13,6.77l22.72,32.94a21.776,21.776,0,0,0,14.5,9.13A721.021,721.021,0,0,0,104-38.9,721.235,721.235,0,0,0,235.02-62.6a2.1,2.1,0,0,0,1.5-1.72l2.21-14.47,41.32-37.56a9.37,9.37,0,0,0,.66-9.53,8.735,8.735,0,0,0-4.13-3.64c-58.14,7.61-117.33,12.76-175.94,15.31A2037.4,2037.4,0,0,1-115.79-116.46Z" fill="#eb0303"/>
            </g>
            <g id="Path_49221_00000002370219673865859320000017148105530706738358_">
              <path  id="Path_77540" data-name="Path 77540" d="M-267.44-345.65l5.07,82.33-138.56-1.19a9.193,9.193,0,0,1-9.13-9.26,9.194,9.194,0,0,1,.99-4.08,132.463,132.463,0,0,1,138.3-71.46,3.932,3.932,0,0,1,3.33,3.66" fill="#fff"/>
            </g>
            <g id="Path_49222_00000009584240337617295890000009340076943602801027_">
              <path  id="Path_77541" data-name="Path 77541" d="M-257.66-258.85l-143.31-1.24a13.572,13.572,0,0,1-9.6-4.06,13.487,13.487,0,0,1-3.92-9.66,13.615,13.615,0,0,1,1.46-6.04,136.547,136.547,0,0,1,142.92-73.84,8.4,8.4,0,0,1,7.09,7.77Zm-33.27-87.56a127.666,127.666,0,0,0-114.19,70.55,4.763,4.763,0,0,0-.51,2.12,4.756,4.756,0,0,0,1.37,3.38,4.723,4.723,0,0,0,3.36,1.42l133.82,1.15-4.75-77.2A130.151,130.151,0,0,0-290.93-346.41Z" fill="#ff0000"/>
            </g>
            <g id="Path_49223_00000013913407569113643490000005790163917020126375_">
              <path  id="Path_77542" data-name="Path 77542" d="M231.11-91.21l-4.33,4.65a39.481,39.481,0,0,1-25.84,12.49L51.14-62.37a1.312,1.312,0,0,1-1.42-1.2,1.322,1.322,0,0,1,.31-.97l3.09-3.6A39.444,39.444,0,0,1,80.03-81.8l150-11.63a1.311,1.311,0,0,1,1.42,1.19,1.243,1.243,0,0,1-.34,1.03"/>
            </g>
            <g id="Path_49224_00000031893583670797979670000013680224389366680238_">
              <path  id="Path_77543" data-name="Path 77543" d="M254.19-96.08,239.81-82.73a13.139,13.139,0,0,1-8.95,3.51h-2.42a.132.132,0,0,1-.13-.13.161.161,0,0,1,.03-.09L241.91-93.5a9.2,9.2,0,0,1,6.63-2.81h5.56a.132.132,0,0,1,.13.13.11.11,0,0,1-.04.1"/>
            </g>
            <g id="Path_49225_00000007398288127893653180000014347210364632499341_">
              <path  id="Path_77544" data-name="Path 77544" d="M-360.94-231.03l-18.05-2.89a1.466,1.466,0,0,1-1.21-1.67l.16-.97a1.459,1.459,0,0,1,1.67-1.21l18.05,2.89a1.466,1.466,0,0,1,1.21,1.67l-.16.97a1.482,1.482,0,0,1-1.67,1.21"/>
            </g>
            <g id="Rectangle_13278_00000146458401369771989050000001213271630023477654_">
              <path  id="Path_77545" data-name="Path 77545" d="M-364.31-224.63a9.036,9.036,0,0,1-1.37-.11h0l-6.49-1.04a8.579,8.579,0,0,1-7.11-9.82,8.581,8.581,0,0,1,9.82-7.12l6.5,1.04a8.593,8.593,0,0,1,7.12,9.82,8.535,8.535,0,0,1-3.44,5.6A8.624,8.624,0,0,1-364.31-224.63Zm-.33-6.67a1.988,1.988,0,0,0,1.44-.34,1.93,1.93,0,0,0,.78-1.26,1.941,1.941,0,0,0-1.61-2.22l-6.49-1.04a1.939,1.939,0,0,0-2.21,1.61,1.941,1.941,0,0,0,1.6,2.22Z"/>
            </g>
            <g id="Path_49226_00000116954568067527068680000012726873619117140147_">
              <path  id="Path_77546" data-name="Path 77546" d="M-239.02-110.24c0,51.83,23.48,93.83,52.44,93.83s52.44-42.01,52.44-93.83-23.48-93.83-52.44-93.83-52.44,42.01-52.44,93.83"/>
            </g>
            <g id="Ellipse_970_00000119813256919013995920000008499799721574128270_">
              <path  id="Path_77547" data-name="Path 77547" d="M-183.8-11.98c-27.74,0-49.47-40.65-49.47-92.54s21.73-92.54,49.47-92.54,49.47,40.65,49.47,92.54S-156.06-11.98-183.8-11.98Zm0-176.22c-22.01,0-40.61,38.32-40.61,83.68s18.6,83.68,40.61,83.68,40.61-38.32,40.61-83.68S-161.79-188.2-183.8-188.2Z"/>
            </g>
            <g id="Path_49227_00000033362802191144749150000000480065841314520740_">
              <path id="Path_77548" data-name="Path 77548" d="M-218.33-102.88c0,36.68,14.72,66.41,32.88,66.41s32.88-29.73,32.88-66.41-14.72-66.41-32.88-66.41-32.88,29.73-32.88,66.41" fill="yellow"/>
            </g>
            <g id="Ellipse_971_00000123412207766623727900000007513056735227535770_">
              <path  id="Path_77549" data-name="Path 77549" d="M-185.44-32.04c-20.92,0-37.31-31.12-37.31-70.84s16.39-70.84,37.31-70.84,37.31,31.12,37.31,70.84S-164.52-32.04-185.44-32.04Zm0-132.82c-13.74,0-28.45,24.91-28.45,61.98s14.71,61.98,28.45,61.98,28.45-24.9,28.45-61.98S-171.71-164.86-185.44-164.86Z"/>
            </g>
            <g id="Path_49228_00000163042633370879480520000017708569225133858475_">
              <path  id="Path_77550" data-name="Path 77550" d="M-199.91-104.53c0,29.96,10.45,54.25,23.34,54.25s23.34-24.29,23.34-54.25-10.45-54.25-23.34-54.25-23.34,24.3-23.34,54.25" fill="#fff"/>
            </g>
            <g id="Path_49229_00000129175080926140492710000000114860316864998818_">
              <path fill="yellow" id="Path_77551" data-name="Path 77551" d="M-176.57-158.77c-12.89,0-23.34,24.29-23.34,54.25s10.45,54.25,23.34,54.25,23.34-24.29,23.34-54.25-10.45-54.25-23.34-54.25"/>
            </g>
            <g id="Ellipse_972_00000132083725469256726180000000660569325032251547_">
              <path  id="Path_77552" data-name="Path 77552" d="M-176.57-45.85c-15.83,0-27.77-25.23-27.77-58.68s11.94-58.68,27.77-58.68,27.77,25.23,27.77,58.68S-160.74-45.85-176.57-45.85Zm0-108.49c-8.93,0-18.91,21.3-18.91,49.82s9.98,49.82,18.91,49.82,18.91-21.3,18.91-49.82S-167.64-154.34-176.57-154.34Z"/>
            </g>
            <g id="Line_3565_00000061455539760753559590000000055341017436113581_">
              <rect  id="Rectangle_19341" data-name="Rectangle 19341" width="8.86" height="16.79" transform="matrix(0.707, -0.707, 0.707, 0.707, -282.548, -271.293)"/>
            </g>
            <g id="Path_49230_00000017482480154445800180000012619561564114864795_">
              <path  id="Path_77553" data-name="Path 77553" d="M-490.53-152.2c0,41.03,13.69,74.3,30.57,74.3s30.57-33.26,30.57-74.3-13.69-74.3-30.57-74.3-30.57,33.27-30.57,74.3"/>
            </g>
            <g id="Ellipse_973_00000085961949548865007430000008919600248240220808_">
              <path  id="Path_77554" data-name="Path 77554" d="M-459.96-73.47c-19.96,0-35-33.85-35-78.73s15.05-78.73,35-78.73,35,33.85,35,78.73S-440.01-73.47-459.96-73.47Zm0-148.6c-12.37,0-26.14,28.7-26.14,69.87s13.78,69.87,26.14,69.87,26.14-28.7,26.14-69.87S-447.6-222.07-459.96-222.07Z"/>
            </g>
            <g id="Path_49231_00000141425804732913781440000009568005631599875242_">
              <path  id="Path_77555" data-name="Path 77555" d="M-483.3-149.9c0,29.24,9.86,52.94,22.03,52.94s22.03-23.7,22.03-52.94-9.86-52.94-22.03-52.94-22.03,23.71-22.03,52.94" fill="#fff"/>
            </g>
            <g id="Ellipse_974_00000158027795630656477140000002823469683348551044_">
              <path fill="yellow" id="Path_77556" data-name="Path 77556" d="M-461.28-92.54c-15.08,0-26.46-24.66-26.46-57.36s11.37-57.36,26.46-57.36,26.46,24.66,26.46,57.36S-446.19-92.54-461.28-92.54Zm0-105.85c-8.31,0-17.6,20.74-17.6,48.5s9.29,48.5,17.6,48.5,17.6-20.74,17.6-48.5S-452.97-198.39-461.28-198.39Z"/>
            </g>
            <g id="Path_49232_00000158004335835246422770000010130728458358854278_">
              <path  id="Path_77557" data-name="Path 77557" d="M-303.41-271.14h26.87a4.374,4.374,0,0,0,4.37-4.37V-290.1a4.374,4.374,0,0,0-4.37-4.37h-12.28a18.962,18.962,0,0,0-18.96,18.96h0a4.368,4.368,0,0,0,4.37,4.37h0"/>
            </g>
            <g id="Path_49233_00000144323095189967631430000003496293176626058132_">
              <path  id="Path_77558" data-name="Path 77558" d="M-276.54-266.71h-26.88a8.813,8.813,0,0,1-8.8-8.8,23.413,23.413,0,0,1,23.39-23.39h12.28a8.813,8.813,0,0,1,8.8,8.8v14.6A8.8,8.8,0,0,1-276.54-266.71Zm-26.81-8.86h26.81l-.06-14.53-12.22.06A14.543,14.543,0,0,0-303.35-275.57Z"/>
            </g>
            <g id="Path_49234_00000087379006331774875550000016278585050880839813_">
              <path  id="Path_77559" data-name="Path 77559" d="M-472.78-151.54c0,23.6,7.36,42.75,16.44,42.75s16.44-19.14,16.44-42.75-7.36-42.75-16.44-42.75-16.44,19.14-16.44,42.75" fill="#fff"/>
            </g>
            <g id="Path_49235_00000029745314596409847410000017741794708648944771_">
              <path  fill="yellow" id="Path_77560" data-name="Path 77560" d="M-456.34-194.28c-9.08,0-16.44,19.14-16.44,42.75s7.36,42.75,16.44,42.75,16.44-19.14,16.44-42.75-7.36-42.75-16.44-42.75"/>
            </g>
            <g id="Ellipse_975_00000061452556410269717590000014283610510104327041_">
              <path  id="Path_77561" data-name="Path 77561" d="M-456.34-104.72c-13.47,0-20.52-23.55-20.52-46.82s7.05-46.82,20.52-46.82,20.52,23.56,20.52,46.82S-442.87-104.72-456.34-104.72Zm0-85.47c-5.04,0-12.35,15.06-12.35,38.66s7.32,38.65,12.35,38.65,12.36-15.06,12.36-38.65S-451.31-190.19-456.34-190.19Z"/>
            </g>
            <g id="Line_3566_00000061433522197051605310000013366204664941973409_">
              <rect  id="Rectangle_19342" data-name="Rectangle 19342" width="8.86" height="160.94" transform="translate(-219.413 -257.481) rotate(-76.014)" fill="#eb0303"/>
            </g>
            <g id="Path_49236_00000005252489770577042560000017285540630787589009_">
              <path  id="Path_77562" data-name="Path 77562" d="M36.41-274.26a703.068,703.068,0,0,1,76.06,28.6,690.778,690.778,0,0,1,69.96,35.94q16.8,9.87,32.99,20.67c2.2,1.46.12,4.98-2.1,3.5A690.846,690.846,0,0,0,76.83-255.99q-20.52-7.83-41.52-14.36a2.031,2.031,0,0,1-1.4-2.51,2.036,2.036,0,0,1,2.5-1.4" fill="#eb0303"/>
            </g>
            <g id="Line_3567_00000039826167902127659350000017601586969128331673_">
              <rect  id="Rectangle_19343" data-name="Rectangle 19343" width="77.38" height="8.86" transform="translate(-368.632 -263.606) rotate(-77.737)" fill="#ff0000"/>
            </g>
            <g id="Path_49237_00000171703414036006131180000009815556757809966472_">
              <path  id="Path_77563" data-name="Path 77563" d="M46.71-82.42l-53.05,1c-8.09.15-15.47,2.66-19.49,6.62L-36.04-64.73c-.89.89.23,1.97,2.03,1.97H4.22c17.57,0,33.65-5.56,41.61-14.38l3.04-3.36c.81-.9-.38-1.96-2.16-1.92" fill="#fff"/>
            </g>
            <g id="Path_49238_00000032617650006061334170000016859281287133969561_">
              <path  id="Path_77564" data-name="Path 77564" d="M46.71-82.42l-53.05,1c-8.09.15-15.47,2.66-19.49,6.62L-36.04-64.73c-.89.89.23,1.97,2.03,1.97H4.22c17.57,0,33.65-5.56,41.61-14.38l3.04-3.36c.8-.9-.38-1.96-2.16-1.92"/>
            </g>
            <g id="Path_49239_00000052067109672753683400000011044099563390239115_">
              <path  id="Path_77565" data-name="Path 77565" d="M4.22-58.34H-34.02c-2.97,0-5.41-1.44-6.37-3.75a5.23,5.23,0,0,1,1.21-5.78l10.24-10.09c4.85-4.77,13.26-7.72,22.52-7.9l53.05-1c2.87.03,5.44,1.36,6.46,3.59a5.2,5.2,0,0,1-.93,5.72l-3.03,3.36C40.3-64.41,23.1-58.34,4.22-58.34ZM-27.24-67.2H4.22c14.59,0,28.25-4.11,35.99-10.67L-6.26-77c-6.83.13-13.3,2.23-16.47,5.34ZM46.79-78Z"/>
            </g>
            <g id="Path_49240_00000036954554615676818850000014054746382532046491_">
              <path  id="Path_77566" data-name="Path 77566" d="M4.18-79.45-13.08-64.49l-2.47,2.14a2.532,2.532,0,0,1-3.49,0,2.493,2.493,0,0,1,0-3.49L-1.77-80.8.7-82.94a2.532,2.532,0,0,1,3.49,0,2.484,2.484,0,0,1-.01,3.49"/>
            </g>
            <g id="Path_49241_00000001656174409330765550000013484259211696633755_">
              <path  id="Path_77567" data-name="Path 77567" d="M22.6-79.45,5.34-64.49,2.87-62.35a2.532,2.532,0,0,1-3.49,0,2.493,2.493,0,0,1,0-3.49L16.64-80.8l2.47-2.14a2.532,2.532,0,0,1,3.49,0,2.512,2.512,0,0,1,0,3.49"/>
            </g>
            <g id="Path_49243_00000158015940952468285960000000867655198807393449_">
              <path  id="Path_77568"  data-name="Path 77568" d="M-29.94-143.18a36.214,36.214,0,0,1-14.96-3.46c-9.77-4.44-18.51-12.71-24.61-23.28s-8.89-22.28-7.86-32.95c1.09-11.23,6.24-20.04,14.5-24.81,16.54-9.55,40.47.83,53.35,23.13h0c6.1,10.57,8.89,22.28,7.86,32.95-1.09,11.23-6.24,20.04-14.5,24.81A27.427,27.427,0,0,1-29.94-143.18Zm-19.05-79.27a18.755,18.755,0,0,0-9.45,2.44c-5.71,3.3-9.31,9.69-10.11,17.99-.86,8.86,1.52,18.68,6.71,27.67s12.51,15.96,20.61,19.65c7.59,3.45,14.93,3.54,20.64.24s9.31-9.69,10.11-17.99c.86-8.86-1.52-18.68-6.71-27.67C-25.19-213.98-37.93-222.45-48.99-222.45Z" fill="#ff0000"/>
            </g>
            <g id="Path_49244_00000104666300580140497890000015147596760819041714_">
              <path  id="Path_77569"  data-name="Path 77569" d="M45.35-270.13l-271.27,8.86a19.906,19.906,0,0,1-20.22-17.82l-4.4-44.72c-2.68-22.73,5.43-38.72,27.62-40.76,28.57-2.63,49.33-3.44,67.07-3.94,24.55-.7,44.76-2.08,62.46-.66,5.98.48,13.88.29,21.04,1.32,4.01.57,17.03,2.41,21.04,3.94,11.91,4.57,25.01,15.22,27.61,17.09q9.165,8.835,18.41,18.41a703.379,703.379,0,0,1,49.98,57.86Z" fill="#fff"/>
            </g>
            <g id="Path_49245_00000059270904178453415880000009220623670092157887_">
              <path  id="Path_77570" data-name="Path 77570" d="M-226.29-256.84a24.49,24.49,0,0,1-24.25-21.8l-4.41-44.74c-1.7-14.41.73-25.82,7.22-33.83,5.54-6.83,13.75-10.79,24.4-11.77,28.34-2.61,49.12-3.45,67.35-3.96,5.83-.17,11.42-.37,16.78-.57,17.39-.64,32.42-1.18,46.16-.09,2.13.17,4.57.26,7.15.35a135.226,135.226,0,0,1,14.16,1l.39.06c8.03,1.15,17.75,2.66,21.61,4.14,10.93,4.19,22.3,12.84,27.15,16.53.64.49,1.14.87,1.46,1.1l.48.4c6.12,5.89,12.35,12.12,18.52,18.52A710.9,710.9,0,0,1,47.7-273.88l.01.01,12.01,7.69-285.52,9.33C-225.95-256.84-226.12-256.84-226.29-256.84Zm115.4-108.52c-8.63,0-17.9.34-27.99.71-5.39.2-11,.4-16.86.57-18.08.51-38.69,1.34-66.79,3.93-8.19.75-14.35,3.62-18.33,8.52-4.86,6-6.69,15.44-5.3,27.3l4.41,44.8a15.567,15.567,0,0,0,15.39,13.84h.33l262.17-8.56C22.12-291.95,7.13-309.1-8.5-325.33c-6.03-6.25-12.11-12.33-18.08-18.09-.35-.26-.82-.61-1.38-1.04-4.16-3.17-15.22-11.58-24.96-15.31-2.27-.87-8.9-2.1-19.69-3.64l-.39-.06a127.529,127.529,0,0,0-13.22-.92c-2.69-.09-5.22-.18-7.55-.37C-99.18-365.19-104.88-365.36-110.89-365.36Z" fill="#ff0000"/>
            </g>
            <g id="Path_49246_00000137126334872589990010000011588968859341303440_">
              <path  id="Path_77571" data-name="Path 77571" d="M-256.47-106.71a5.907,5.907,0,0,1-1.15-.11L-365.1-130.73l-.89-2.02a304.969,304.969,0,0,1-16.56-48.19,229.424,229.424,0,0,1-5.12-26.9c-2.17-16.84-3.73-29.01,1.55-41.81a50.64,50.64,0,0,1,12.78-17.99l1.26-1.13,108.63,1.08v7.08l10.85,2.89a5.686,5.686,0,0,1,4.2,5.64l-2.46,139.81a5.56,5.56,0,0,1-1.62,3.89,5.691,5.691,0,0,1-3.99,1.67Zm-3.11-5.77v0Zm-99.31-25.81,99.38,22.11,2.36-133.75-10.81-2.87a5.705,5.705,0,0,1-4.2-5.53v-.74l-96.56-.96a41.877,41.877,0,0,0-9.35,13.72c-4.19,10.16-3.21,19.8-.95,37.35a220.537,220.537,0,0,0,4.93,25.87A295.006,295.006,0,0,0-358.89-138.29ZM-257.12-252.3v0Zm-6.33-6.04v0Z" fill="#eb0303"/>
            </g>
          </g>
        </g>
      </g>
    </g>

    <g id="Rectangle_16815_00000090997236433295922550000010178495495006127525_" transform="translate(1010.147 719.78)" opacity="0.7">
      <g id="Group_75326" data-name="Group 75326">
        <path id="Path_77572" data-name="Path 77572" d="M-464.28-517.17H365.25a48.734,48.734,0,0,1,48.73,48.73v124.27a48.734,48.734,0,0,1-48.73,48.73H-464.28a48.734,48.734,0,0,1-48.73-48.73V-468.44A48.721,48.721,0,0,1-464.28-517.17Z" fill="#fff"/>
      </g>
      <g id="Group_75327" data-name="Group 75327">
        <path  id="Path_77573" data-name="Path 77573" d="M365.25-295.44H-464.28a48.785,48.785,0,0,1-48.73-48.73V-468.44a48.785,48.785,0,0,1,48.73-48.73H365.25a48.785,48.785,0,0,1,48.73,48.73v124.27A48.785,48.785,0,0,1,365.25-295.44ZM-464.28-514.96a46.564,46.564,0,0,0-46.51,46.51v124.27a46.564,46.564,0,0,0,46.51,46.51H365.25a46.564,46.564,0,0,0,46.51-46.51V-468.45a46.564,46.564,0,0,0-46.51-46.51Z" fill="#c0c0c0"/>
      </g>
    </g>
    <g id="Group_32947_00000106863606203279464630000015443328440964800933_" transform="translate(1032.28 600.391)">
      <g id="Group_75328" data-name="Group 75328">
        <g id="Group_27315_00000070827730961997608750000008991900478847614649_">
          <g id="Path_53728_00000182504322114345739720000008989304607029409922_">
            <path id="Path_77574" data-name="Path 77574" d="M-398.02-319.08l-10.41,71.3h-10.41l-6.39-40.36q-.09-2.19-.36-6.51,0,2.19-.36,6.51l-6.33,40.36h-10.47l-10.42-71.3h10.78l5.51,42.23q.135,2.19.36,6.51.045-2.19.41-6.51l6.14-42.23h8.74l6.14,42.23q.135,2.19.41,6.51.045-2.19.36-6.51l5.51-42.23Zm35.04,9.42h-18.43v21.07h15.74v9.24h-15.74v31.48h-10.65v-71.21h29.08Zm40.99,55.28q0,6.51-6.42,6.51h-22.2q-6.33,0-6.32-6.51v-58.15q0-6.555,6.46-6.55h22.07q6.42,0,6.42,6.55Zm-10.41-2.63v-52.92h-14.07v52.92Zm48.5,9.13h-29.53v-71.21h29.26v9.42h-18.61v20.82h16.02v9.24h-16.02v22.33h18.88Zm42.77,0h-11.52l-7.82-25.06-7.87,25.06h-11.33v-.35l13.29-36.08q-12.51-34.59-12.47-34.76h11.38l7.09,23.21,7.15-23.21h11.29v.41l-12.47,34.08Zm41,0h-11.52l-7.82-25.06-7.87,25.06h-11.33v-.35l13.29-36.08q-12.51-34.59-12.47-34.76h11.38l7.09,23.21,7.14-23.21h11.29v.41l-12.47,34.08Zm58.06-71.21-10.41,71.3h-10.41l-6.39-40.35q-.09-2.19-.36-6.51,0,2.19-.36,6.51l-6.32,40.36h-10.47l-10.41-71.3h10.78l5.51,42.23q.135,2.19.36,6.51.045-2.19.41-6.51l6.14-42.23h8.74l6.14,42.23q.135,2.19.41,6.51.045-2.19.36-6.51l5.51-42.23Zm40.36,38.76q0,6.645-6.51,6.64h-17.25v25.8h-10.65V-319.1h27.89q6.51,0,6.51,6.55v32.22Zm-10.73-2.5v-27.1h-13.01v27.12Zm53.32,28.45a5.761,5.761,0,0,1-4.91,6.5,6.045,6.045,0,0,1-1.59,0H-87.83q-6.33,0-6.32-6.51v-58.14q0-6.555,6.32-6.55h22.21q6.51,0,6.51,6.55v16.65h-10.6v-14.06H-83.5v52.92h13.79v-14.97h10.6Zm37.91,6.5H-50.74v-71.21h29.26v9.42H-40.09v20.82h16.02v9.24H-40.09v22.33h18.88Zm42.5-6.51a5.769,5.769,0,0,1-4.9,6.51,5.717,5.717,0,0,1-1.6,0H-7.61q-6.33,0-6.33-6.51v-58.14q0-6.555,6.46-6.55H14.78q6.51,0,6.51,6.55v15.2H10.6v-12.6H-3.28v52.92H10.6v-19.93H2.68v-9.05H21.29Zm43.54,0a5.769,5.769,0,0,1-4.9,6.51,5.43,5.43,0,0,1-1.61,0H36.12q-6.33,0-6.32-6.51v-58.14q0-6.555,6.32-6.55H58.33q6.51,0,6.51,6.55v16.65H54.24v-14.06H40.44v52.92H54.23v-14.97H64.84Zm43.87,6.51H97.18l-7.82-25.06-7.87,25.06H70.16v-.35l13.29-36.08Q70.94-318.9,70.98-319.07H82.34l7.09,23.21,7.14-23.21h11.29v.41L95.41-284.58Zm41,0H138.18l-7.82-25.06-7.87,25.06H111.16v-.35l13.29-36.08q-12.51-34.59-12.47-34.76h11.38l7.09,23.21,7.14-23.21h11.29v.41l-12.46,34.08Zm41,0H179.18l-7.82-25.06-7.87,25.06H152.16v-.35l13.29-36.08q-12.51-34.59-12.47-34.76h11.38l7.09,23.21,7.14-23.21h11.29v.41l-12.47,34.08Zm40.99,0H220.17l-7.81-25.06-7.88,25.06H193.15v-.35l13.29-36.08q-12.51-34.59-12.47-34.76h11.38l7.09,23.21,7.14-23.21h11.29v.41L218.4-284.58Zm41,0H261.17l-7.82-25.06-7.87,25.06H234.15v-.35l13.29-36.08q-12.51-34.59-12.47-34.76h11.38l7.09,23.21,7.14-23.21h11.29v.41L259.4-284.58Z" fill="#c0c0c0"/>
          </g>
        </g>
      </g>
    </g>
    <g id="Group_32948_00000183226872247671802330000002045069593286978953_" transform="translate(1156.819 709.434)">
      <g id="Group_27496_00000047770138820773496060000017661138848861690534_">
        <g id="Group_27310_00000084521472608087383920000011751374837432866447_" transform="translate(11.516 11.305)" opacity="0.49">
          <g id="Group_27309_00000018230619373729123960000007625012246122066825_">
            <g id="Group_75329" data-name="Group 75329">
              <g id="Group_27308_00000050657324351442094110000011482430543565727897_">
                <g id="Path_53655_00000078757913045586254710000013016504637147822234_">
                  <path id="Path_77575" data-name="Path 77575" d="M-215.28-516.01A105.535,105.535,0,0,1-109.74-410.48,105.535,105.535,0,0,1-215.27-304.94,105.535,105.535,0,0,1-320.81-410.47h0A105.523,105.523,0,0,1-215.28-516.01h0" fill="#fff"/>
                </g>
              </g>
            </g>
          </g>
        </g>
        <g id="Path_53654_00000095315512788636078820000011369455511470494120_" transform="translate(-91.067 -85.356)">
          <g id="Group_75330" data-name="Group 75330">
            <path id="Path_77576" data-name="Path 77576" d="M58-115.49a27.1,27.1,0,0,1-19.2-7.91l-79.2-79.2a131.668,131.668,0,0,1-72.13,21.51h-.01a132.664,132.664,0,0,1-31.73-3.85,132.5,132.5,0,0,1-29.95-11.35,131.76,131.76,0,0,1-26.69-18.55,132.3,132.3,0,0,1-21.94-25.45,131.426,131.426,0,0,1-19.76-48.63,132.285,132.285,0,0,1-2.24-25.45,133.612,133.612,0,0,1,2.65-25.22,133.21,133.21,0,0,1,7.39-24.26,132.078,132.078,0,0,1,11.99-22.56,131.366,131.366,0,0,1,37.16-37.08,131.566,131.566,0,0,1,72.89-22,133.256,133.256,0,0,1,31.74,3.85,132.5,132.5,0,0,1,29.95,11.35,131.76,131.76,0,0,1,26.69,18.55A132.3,132.3,0,0,1-2.45-386.29a132.028,132.028,0,0,1,16.49,35.27,132.115,132.115,0,0,1,5.5,37.75,132.115,132.115,0,0,1-5.5,37.75,132.126,132.126,0,0,1-16,34.51L77.2-161.82a27.1,27.1,0,0,1,7.93,19.22,27.118,27.118,0,0,1-7.93,19.22A27.16,27.16,0,0,1,58-115.49ZM-112.72-418.24a103.826,103.826,0,0,0-39.09,7.64,103.733,103.733,0,0,0-57,56.02,103.7,103.7,0,0,0-.69,79.91,103.977,103.977,0,0,0,96.81,65.29h.17a102.871,102.871,0,0,0,38.92-7.61l.2-.08h.02a103.746,103.746,0,0,0,56.8-55.94,103.7,103.7,0,0,0,.69-79.91A103.972,103.972,0,0,0-112.72-418.24Z" fill="#101340"/>
          </g>
          <g id="Group_75331" data-name="Group 75331">
            <path id="Path_77577" data-name="Path 77577" d="M58-116.6a26.073,26.073,0,0,0,18.42-7.59,26.146,26.146,0,0,0,0-36.87l-79.8-79.82a131.109,131.109,0,0,0,.01-144.81,130.942,130.942,0,0,0-109.39-58.7,130.43,130.43,0,0,0-72.27,21.82A131.083,131.083,0,0,0-221.91-240.9a130.959,130.959,0,0,0,109.4,58.7,130.43,130.43,0,0,0,72.27-21.82l79.83,79.83A26,26,0,0,0,58-116.6m-170.67-91.67h-.01a105.544,105.544,0,0,1-97.84-65.98,105.51,105.51,0,0,1,58.3-137.37,105.177,105.177,0,0,1,39.51-7.72,105.568,105.568,0,0,1,97.87,66.01,105.51,105.51,0,0,1-58.3,137.37h-.02a104.54,104.54,0,0,1-39.51,7.69M58-114.38a28.174,28.174,0,0,1-19.98-8.23l-78.56-78.56a132.787,132.787,0,0,1-71.98,21.2,134.427,134.427,0,0,1-32.01-3.88,133.557,133.557,0,0,1-30.2-11.44A132.2,132.2,0,0,1-201.64-214a133.875,133.875,0,0,1-22.13-25.66,132.387,132.387,0,0,1-19.92-49.04,132.874,132.874,0,0,1-2.26-25.66,135.007,135.007,0,0,1,2.67-25.43,134.4,134.4,0,0,1,7.46-24.46A133.217,133.217,0,0,1-223.73-387a132.508,132.508,0,0,1,37.47-37.39,132.69,132.69,0,0,1,73.5-22.19,134.344,134.344,0,0,1,32,3.88,133.556,133.556,0,0,1,30.2,11.44,132.2,132.2,0,0,1,26.91,18.71A133.875,133.875,0,0,1-1.52-386.89a133.134,133.134,0,0,1,16.63,35.56,133.234,133.234,0,0,1,5.54,38.07,133.3,133.3,0,0,1-5.55,38.07A132.972,132.972,0,0,1-.54-241.15L77.99-162.6a28.2,28.2,0,0,1,8.25,20,28.2,28.2,0,0,1-8.25,20l-.01.01A28.3,28.3,0,0,1,58-114.38ZM-112.72-417.13a102.864,102.864,0,0,0-38.68,7.55,102.644,102.644,0,0,0-56.39,55.42,102.639,102.639,0,0,0-.68,79.07,102.881,102.881,0,0,0,95.79,64.6h.18A101.674,101.674,0,0,0-74-218.02l.4-.16h.02a102.608,102.608,0,0,0,55.99-55.26,102.639,102.639,0,0,0,.68-79.07A102.9,102.9,0,0,0-112.72-417.13Z" fill="#013366"/>
          </g>
        </g>
      </g>
    </g>
  </g>
</svg>
