<svg id="aksesuari" data-name="Слой 1" xmlns="http://www.w3.org/2000/svg" viewBox="0 0 283.46 283.46">
    <defs>
        <style>

            #aksesuari .cls-1 {
            fill: #FF000C
            }

            #aksesuari .cls-1, #aksesuari .cls-3, #aksesuari .cls-4 {
            fill-rule: evenodd
            }

            #aksesuari .cls-2, #aksesuari .cls-5 {
            fill: none;
            stroke-miterlimit: 22.93
            }

            #aksesuari .cls-2 {
            stroke: #fff;
            stroke-width: 2px
            }

            #aksesuari .cls-3 {
            fill: #fff
            }

            #aksesuari .cls-4 {
            fill: #FF5500
            }

            #aksesuari .cls-5 {
            stroke: #f0820a;
            stroke-width: .57px
            }
        </style>
    </defs>
    <path class="cls-1" d="M167.61,185.43h55.81a11.88,11.88,0,0,1,11.85,11.85h0a11.88,11.88,0,0,1-11.85,11.85H173.77Zm-100.49,0H121.3l-5.94,23.7H67.12a11.88,11.88,0,0,1-11.85-11.85h0A11.88,11.88,0,0,1,67.12,185.43Z"></path>
    <path class="cls-2" d="M167.61,185.43h55.81a11.88,11.88,0,0,1,11.85,11.85h0a11.88,11.88,0,0,1-11.85,11.85H173.77Zm-100.49,0H121.3l-5.94,23.7H67.12a11.88,11.88,0,0,1-11.85-11.85h0A11.88,11.88,0,0,1,67.12,185.43Z"></path>
    <path class="cls-1" d="M155.54,56l78.15,135.36a11.88,11.88,0,0,1-4.34,16.19h0a11.88,11.88,0,0,1-16.19-4.34L135,67.86a11.88,11.88,0,0,1,4.34-16.19h0A11.88,11.88,0,0,1,155.54,56Z"></path>
    <path class="cls-2" d="M155.54,56l78.15,135.36a11.88,11.88,0,0,1-4.34,16.19h0a11.88,11.88,0,0,1-16.19-4.34L135,67.86a11.88,11.88,0,0,1,4.34-16.19h0A11.88,11.88,0,0,1,155.54,56Z"></path>
    <path class="cls-1" d="M135,56,56.85,191.37a11.88,11.88,0,0,0,4.34,16.19h0a11.88,11.88,0,0,0,16.19-4.34L155.53,67.86a11.88,11.88,0,0,0-4.34-16.19h0A11.88,11.88,0,0,0,135,56Z"></path>
    <path class="cls-2" d="M135,56,56.85,191.37a11.88,11.88,0,0,0,4.34,16.19h0a11.88,11.88,0,0,0,16.19-4.34L155.53,67.86a11.88,11.88,0,0,0-4.34-16.19h0A11.88,11.88,0,0,0,135,56Z"></path>
    <path class="cls-3" d="M67.42,192.93a4.35,4.35,0,1,1-4.35,4.35,4.35,4.35,0,0,1,4.35-4.35"></path>
    <path class="cls-1" d="M67.42,195.71a1.57,1.57,0,1,1-1.57,1.57,1.58,1.58,0,0,1,1.57-1.57"></path>
    <path class="cls-3" d="M144.61,59.87a4.35,4.35,0,1,1-4.35,4.35,4.35,4.35,0,0,1,4.35-4.35"></path>
    <path class="cls-1" d="M144.61,62.64A1.57,1.57,0,1,1,143,64.22a1.58,1.58,0,0,1,1.57-1.57"></path>
    <path class="cls-3" d="M221.79,192.93a4.35,4.35,0,1,1-4.35,4.35,4.35,4.35,0,0,1,4.35-4.35"></path>
    <path class="cls-1" d="M221.79,195.71a1.57,1.57,0,1,1-1.57,1.57,1.58,1.58,0,0,1,1.57-1.57"></path>
    <path class="cls-4 active-color" d="M96.31,226.47H192a3.46,3.46,0,0,1,3.45,3.45h0a3.46,3.46,0,0,1-3.45,3.45H96.31a3.46,3.46,0,0,1-3.45-3.45h0a3.46,3.46,0,0,1,3.45-3.45"></path>
    <path class="cls-4 active-color" d="M156.5,149.07l-2.19-9H134.9l-2.19,9Zm4,16.35L158.91,159h-28.6l-1.57,6.45Zm4,16.35-1.57-6.45H126.34l-1.57,6.45Zm4.41,18.15-2-8.25H122.37l-2,8.25Zm-53.8,21.84h59.1l-2.9-11.94H118Z"></path>
    <line class="cls-5 active-stock" x1="154.18" y1="140.78" x2="172.96" y2="218.37"></line>
    <line class="cls-5 active-stock" x1="134.97" y1="140.89" x2="116.25" y2="218.37"></line>
</svg>