<svg width="86" height="58" viewBox="0 0 86 58" fill="none" xmlns="http://www.w3.org/2000/svg">
<path d="M43.001 41.9385H82.7577V38.6331H43.001V41.9385Z" fill="#6082B5"/>
<path d="M3 49.907V58H43V49.907H3Z" fill="#A2B6D3"/>
<path d="M43 58H83V49.907H43V58Z" fill="#6082B5"/>
<path d="M43.0009 38.6331H3.24316V41.9385H43.0009V38.6331Z" fill="#A2B6D3"/>
<path d="M43 27.6512H83V20.2325H43V27.6512Z" fill="#A2B6D3"/>
<path d="M43 20.2325H3V27.6512H43V20.2325Z" fill="#A2B6D3"/>
<path d="M43 27.6512H3V41.814H43V27.6512Z" fill="#6082B5"/>
<path d="M43 41.814H83V27.6512H43V41.814Z" fill="#466086"/>
<path d="M3.24256 6.01565H0V20.1963H43.0003V6.01565H3.24256Z" fill="#5197D8"/>
<path d="M82.7577 6.01561H43.001V20.1963H86.0003V6.01561H82.7577Z" fill="#6082B5"/>
<path d="M43 41.8139H3V53.2791H43V41.8139Z" fill="#596B83"/>
<path d="M43 53.2791H83V41.8139H43V53.2791Z" fill="#424D5F"/>
<path d="M30.6757 2.6226e-05H3.24316V6.01544H30.6757V2.6226e-05Z" fill="#596B83"/>
<path d="M82.7572 2.6226e-05H55.3252V6.01544H82.7572V2.6226e-05Z" fill="#424D5F"/>
<path d="M69 36.5543H59V34H69V36.5543Z" fill="white"/>
<path d="M28 34.087H23.8844V30H22.1162V34.087H18V35.8548H22.1162V40H23.8844V35.8548H28V34.087Z" fill="#293546"/>
</svg>
