<?xml version="1.0" encoding="utf-8"?>
<!-- Generator: Adobe Illustrator 27.5.0, SVG Export Plug-In . SVG Version: 6.00 Build 0)  -->
<svg version="1.1" xmlns="http://www.w3.org/2000/svg" xmlns:xlink="http://www.w3.org/1999/xlink" x="0px" y="0px"
	 viewBox="0 0 2200 2200" style="enable-background:new 0 0 2200 2200;" xml:space="preserve">
<g id="background">
	<rect y="0" style="fill:#FFFFFF;" width="2200" height="2200"/>
</g>
<g id="Objects">
	<g>
		<path style="fill:#9DD64C;" d="M1905.036,1563.241c1.283,1.253,2.566,2.516,3.858,3.769c-1.74-0.487-3.48-0.974-5.211-1.462
			c-206.03-57.735-395.871,132.106-338.136,338.136c0.487,1.73,0.975,3.47,1.462,5.211c-1.253-1.293-2.516-2.576-3.769-3.858
			c-149.558-153.028-408.887-83.54-461.909,123.763c-0.438,1.74-0.885,3.48-1.333,5.23c-0.448-1.75-0.895-3.49-1.333-5.23
			c-53.021-207.303-312.351-276.791-461.909-123.763c-1.253,1.283-2.516,2.565-3.769,3.858c0.487-1.74,0.975-3.48,1.462-5.211
			c57.735-206.03-132.106-395.871-338.136-338.136c-1.73,0.487-3.47,0.974-5.211,1.462c1.293-1.253,2.576-2.516,3.858-3.769
			c153.028-149.558,83.54-408.887-123.763-461.909c-1.74-0.438-3.48-0.885-5.23-1.333c1.75-0.448,3.49-0.895,5.23-1.333
			c207.303-53.021,276.791-312.351,123.763-461.909c-1.283-1.253-2.566-2.516-3.858-3.769c1.74,0.487,3.48,0.975,5.211,1.462
			c206.03,57.735,395.871-132.106,338.136-338.136c-0.487-1.73-0.975-3.47-1.462-5.211c1.253,1.293,2.516,2.576,3.769,3.858
			c149.558,153.028,408.887,83.54,461.909-123.763c0.438-1.74,0.885-3.48,1.333-5.23c0.448,1.75,0.895,3.49,1.333,5.23
			c53.021,207.303,312.351,276.791,461.909,123.763c1.253-1.283,2.516-2.566,3.769-3.858c-0.487,1.74-0.975,3.48-1.462,5.211
			c-57.735,206.03,132.106,395.871,338.136,338.136c1.73-0.487,3.47-0.975,5.211-1.462c-1.293,1.253-2.575,2.516-3.858,3.769
			c-153.028,149.558-83.54,408.887,123.763,461.909c1.74,0.438,3.48,0.885,5.23,1.333c-1.75,0.448-3.49,0.895-5.23,1.333
			C1821.497,1154.354,1752.008,1413.683,1905.036,1563.241z"/>
		<circle style="fill:#47AF41;" cx="1100" cy="1100" r="598.107"/>
		<polygon style="fill:#FFFFFF;" points="1046.225,1497.006 1075.041,1158.5 904.928,1158.5 1153.775,702.995 1124.959,1041.5 
			1295.072,1041.5 		"/>
	</g>
</g>
</svg>
