<svg id="filtri" data-name="Слой 1" xmlns="http://www.w3.org/2000/svg" xmlns:xlink="http://www.w3.org/1999/xlink" viewBox="0 0 283.46 283.46">
    <defs>
        <style>

            #filtri .cls-1, #filtri .cls-5, #filtri .cls-6, #filtri .cls-7, #filtri .cls-8, #filtri .cls-9, #filtri .cls-10 {
            fill: none
            }

            #filtri .cls-1 {
            clip-rule: evenodd
            }

            #filtri .cls-2 {
            fill: #242215
            }

            #filtri .cls-2, #filtri .cls-3 {
            fill-rule: evenodd
            }

            #filtri .cls-3 {
            fill: #FFE400
            }

            #filtri .cls-4 {
            -webkit-clip-path: url(#clip-path);
            clip-path: url(#clip-path)
            }

            #filtri .cls-5, #filtri .cls-6, #filtri .cls-7, #filtri .cls-8, #filtri .cls-9, #filtri .cls-10 {
            stroke: #fff;
            stroke-miterlimit: 22.93
            }

            #filtri .cls-5 {
            stroke-width: .75px
            }

            #filtri .cls-6 {
            stroke-width: 3px
            }

            #filtri .cls-7 {
            stroke-width: 2px
            }

            #filtri .cls-8 {
            stroke-width: .5px
            }

            #filtri .cls-9 {
            stroke-width: 1.5px
            }

            #filtri .cls-10 {
            stroke-width: 2.85px
            }
        </style>
        <clipPath id="clip-path">
            <path class="cls-1" d="M199.24,93.53V199.69c-39.64,19.15-78.52,19.56-116.6,0V95c11.23,6.33,32.59,10.61,57.09,10.61,26.4,0,49.15-5,59.51-12.12"></path>
        </clipPath>
    </defs>
    <path class="cls-2" d="M199.24,196.86c3.83,2.65,6,5.59,6,8.7,0,11.5-29.32,20.82-65.49,20.82s-65.49-9.32-65.49-20.82c0-3.71,3.05-7.19,8.4-10.2v4.33c38.08,19.56,77,19.15,116.6,0Z"></path>
    <path class="cls-3 active-color" d="M199.24,93.53V199.69c-39.64,19.15-78.52,19.56-116.6,0V95c11.23,6.33,32.59,10.61,57.09,10.61,26.4,0,49.15-5,59.51-12.12"></path>
    <g class="cls-4">
        <line class="cls-5" x1="85.45" y1="95.08" x2="85.45" y2="205.45"></line>
        <line class="cls-6" x1="93.24" y1="95.08" x2="93.24" y2="205.45"></line>
        <line class="cls-7" x1="101.46" y1="99.56" x2="101.46" y2="210.86"></line>
        <line class="cls-7" x1="109.68" y1="99.56" x2="109.68" y2="214.2"></line>
        <line class="cls-7" x1="117.9" y1="101.91" x2="117.9" y2="218.05"></line>
        <line class="cls-7" x1="163.03" y1="101.91" x2="163.03" y2="218.05"></line>
        <line class="cls-7" x1="171.88" y1="99.67" x2="171.88" y2="215.81"></line>
        <line class="cls-7" x1="179.54" y1="99.67" x2="179.54" y2="215.81"></line>
        <line class="cls-7" x1="189.58" y1="92.19" x2="189.58" y2="208.33"></line>
        <line class="cls-8" x1="196.06" y1="92.19" x2="196.06" y2="208.33"></line>
        <line class="cls-9" x1="128.81" y1="101.91" x2="128.81" y2="218.05"></line>
        <line class="cls-9" x1="136.48" y1="101.91" x2="136.48" y2="218.05"></line>
        <line class="cls-9" x1="145.33" y1="101.91" x2="145.33" y2="218.05"></line>
        <line class="cls-9" x1="154.18" y1="101.91" x2="154.18" y2="218.05"></line>
    </g>
    <path class="cls-2" d="M139.73,64c36.17,0,65.49,9.32,65.49,20.82s-29.32,20.82-65.49,20.82S74.24,96.32,74.24,84.83,103.56,64,139.73,64"></path>
    <ellipse class="cls-10" cx="139.73" cy="84.83" rx="44.09" ry="10.25"></ellipse>
</svg>