<svg id="farbi" data-name="Слой 1" xmlns="http://www.w3.org/2000/svg" viewBox="0 0 283.46 283.46">
    <defs>
        <style>

            #farbi .cls-1, #farbi .cls-3 {
            fill: #A1CDCA
            }

            #farbi .cls-1, #farbi .cls-2 {
            fill-rule: evenodd
            }

            #farbi .cls-2 {
            fill: #0017FF
            }
        </style>
    </defs>
    <polygon class="cls-1" points="134.65 151.63 142.43 151.63 142.43 171.94 146.78 171.94 146.78 174.57 142.43 174.57 134.65 174.57 134.65 171.94 134.65 151.63"></polygon>
    <polygon class="cls-1" points="144.93 147.8 153.31 147.8 158.19 137.39 166.83 142 164.55 147.8 174.74 147.8 169.99 169.3 144.93 169.3 144.93 147.8"></polygon>
    <polygon class="cls-1" points="122.25 158.55 132.4 158.55 132.4 172.33 130.89 172.33 129.59 166.57 122.25 168.64 122.25 165.21 128.92 163.85 128.84 161.91 122.25 161.98 122.25 158.55"></polygon>
    <path class="cls-2 active-color" d="M75.23,194.56c-7.13-21.39-8-42.49,0-63.17l44.45,28.49v5.57L75.23,194.56"></path>
    <path class="cls-1" d="M175.28,198.85c-2.22,4.42-9.14,4.55-8.39,2.31l4.62-3.3c1.71-5.76,1.52-13.56,1.52-21.3,0-1.78-1.52-5.48-1.52-7.26l6.73-23.94c2-2.36,6.22-1.47,5.41,2.44-1.13,6.56-3.14,13.74-4.08,20.77-.48,3.59.15,7.2-.4,10.56-1.14,7.08-2.74,12.65-3.88,19.72"></path>
    <path class="cls-1" d="M200.81,231.54l-2,4.92h22.82c0-19.37-7-35.57-10.55-53.35-1.36-6.11,2.41-9.17,10.55-9.65v-1.12H210.21V158.55H198.8l-3.56-10.75h-9.1l-4.35,21.5h10.68c3.91,7.72,5.32,19.45,5.87,28.82-3.43,2.8-8.27,4.12-13.54,5-1.06.24-1.74,1.93,0,2.09,4,1.17,8.52-.7,12.09,3.5,1.31,7.61,4.81,18.33,3.92,22.84"></path>
    <rect class="cls-3" x="212.47" y="161.49" width="9.15" height="5.21"></rect>
    <polygon class="cls-1" points="198.43 150.28 207.58 150.28 207.58 153.22 199.38 153.22 198.43 150.28"></polygon>
    <rect class="cls-3" x="201.71" y="238.68" width="6.87" height="6.33"></rect>
    <polygon class="cls-1" points="215.49 238.68 222.36 238.68 224.82 245.01 217.95 245.01 215.49 238.68"></polygon>
    <polygon class="cls-1" points="165.15 127.86 160.67 136.37 166.83 139.13 170.95 130.89 200.96 123.44 221.8 77.61 171.68 54.92 150.84 100.29 165.15 127.86"></polygon>
    <polygon class="cls-2 active-color" points="163.97 135.23 165.72 136.01 169.31 128.84 199.26 121.4 214.71 87.42 159.56 87.04 153.5 100.23 167.85 127.87 163.97 135.23"></polygon>
    <polygon class="cls-1" points="174.74 42.63 171.33 49.99 225.62 75.08 228.94 67.8 174.74 42.63"></polygon>
</svg>